<svg width="194" height="51" viewBox="0 0 194 51" fill="none" xmlns="http://www.w3.org/2000/svg">
<path d="M36.65 27V24.558H39.95V14.086H36.65V11.644H46.55V14.086H43.25V24.558H46.55V27H36.65ZM49.6214 27V15.648H52.8774V17.716H53.0094C53.1414 17.3933 53.3027 17.0927 53.4934 16.814C53.6841 16.5353 53.9114 16.2933 54.1754 16.088C54.4541 15.868 54.7694 15.6993 55.1214 15.582C55.4881 15.45 55.8987 15.384 56.3534 15.384C56.8961 15.384 57.3947 15.4793 57.8494 15.67C58.3041 15.846 58.6927 16.1173 59.0154 16.484C59.3381 16.8507 59.5874 17.298 59.7634 17.826C59.9541 18.354 60.0494 18.9627 60.0494 19.652V27H56.7934V20.092C56.7934 18.6253 56.1554 17.892 54.8794 17.892C54.6301 17.892 54.3807 17.9287 54.1314 18.002C53.8967 18.0607 53.6841 18.1633 53.4934 18.31C53.3027 18.442 53.1487 18.6107 53.0314 18.816C52.9287 19.0213 52.8774 19.2633 52.8774 19.542V27H49.6214ZM70.0288 24.932H69.8748C69.5815 25.6213 69.1708 26.186 68.6428 26.626C68.1295 27.0513 67.4181 27.264 66.5088 27.264C65.8781 27.264 65.2988 27.1467 64.7708 26.912C64.2575 26.6773 63.8101 26.318 63.4288 25.834C63.0621 25.35 62.7688 24.734 62.5488 23.986C62.3435 23.238 62.2408 22.3507 62.2408 21.324C62.2408 20.2973 62.3435 19.41 62.5488 18.662C62.7688 17.914 63.0621 17.298 63.4288 16.814C63.8101 16.33 64.2575 15.9707 64.7708 15.736C65.2988 15.5013 65.8781 15.384 66.5088 15.384C66.9635 15.384 67.3668 15.4427 67.7188 15.56C68.0708 15.6773 68.3788 15.8387 68.6428 16.044C68.9215 16.2493 69.1561 16.4987 69.3468 16.792C69.5521 17.0707 69.7281 17.3787 69.8748 17.716H70.0288V10.72H73.2848V27H70.0288V24.932ZM67.9168 24.734C68.4888 24.734 68.9801 24.5947 69.3908 24.316C69.8161 24.0373 70.0288 23.5973 70.0288 22.996V19.652C70.0288 19.0507 69.8161 18.6107 69.3908 18.332C68.9801 18.0533 68.4888 17.914 67.9168 17.914C67.1835 17.914 66.6188 18.1413 66.2228 18.596C65.8268 19.036 65.6288 19.652 65.6288 20.444V22.204C65.6288 22.996 65.8268 23.6193 66.2228 24.074C66.6188 24.514 67.1835 24.734 67.9168 24.734ZM85.2882 27C84.6136 27 84.0709 26.8313 83.6602 26.494C83.2496 26.142 83.0076 25.6433 82.9342 24.998H82.8242C82.6189 25.746 82.2082 26.3107 81.5922 26.692C80.9909 27.0733 80.2502 27.264 79.3702 27.264C78.2702 27.264 77.3829 26.9707 76.7082 26.384C76.0482 25.7827 75.7182 24.9467 75.7182 23.876C75.7182 22.688 76.1509 21.808 77.0162 21.236C77.8816 20.664 79.1502 20.378 80.8222 20.378H82.6482V19.806C82.6482 19.1313 82.4869 18.6253 82.1642 18.288C81.8562 17.936 81.3282 17.76 80.5802 17.76C79.8909 17.76 79.3336 17.892 78.9082 18.156C78.4829 18.42 78.1162 18.7647 77.8082 19.19L76.0262 17.606C76.4076 16.9607 77.0016 16.4327 77.8082 16.022C78.6296 15.5967 79.6782 15.384 80.9542 15.384C82.5089 15.384 83.7189 15.7433 84.5842 16.462C85.4642 17.166 85.9042 18.2367 85.9042 19.674V24.646H87.1582V27H85.2882ZM80.6022 25.13C81.1742 25.13 81.6582 24.9907 82.0542 24.712C82.4502 24.4333 82.6482 24.03 82.6482 23.502V22.138H80.9102C79.5756 22.138 78.9082 22.5853 78.9082 23.48V23.92C78.9082 24.316 79.0622 24.6167 79.3702 24.822C79.6782 25.0273 80.0889 25.13 80.6022 25.13ZM160.323 27.264C159.501 27.264 158.907 27.088 158.541 26.736C158.189 26.3693 158.013 25.9367 158.013 25.438V24.668C158.013 24.1693 158.189 23.744 158.541 23.392C158.907 23.0253 159.501 22.842 160.323 22.842C161.144 22.842 161.731 23.0253 162.083 23.392C162.449 23.744 162.633 24.1693 162.633 24.668V25.438C162.633 25.9367 162.449 26.3693 162.083 26.736C161.731 27.088 161.144 27.264 160.323 27.264ZM168.542 24.47H171.16V18.178H168.542V15.648H174.416V18.86H174.57C174.673 18.4493 174.812 18.0533 174.988 17.672C175.179 17.276 175.413 16.9313 175.692 16.638C175.985 16.33 176.337 16.088 176.748 15.912C177.159 15.736 177.643 15.648 178.2 15.648H179.278V18.64H176.858C176.051 18.64 175.443 18.882 175.032 19.366C174.621 19.8353 174.416 20.4147 174.416 21.104V24.47H178.156V27H168.542V24.47ZM188.619 24.932H188.487C188.238 25.5773 187.842 26.1273 187.299 26.582C186.771 27.0367 186.053 27.264 185.143 27.264C184.601 27.264 184.102 27.176 183.647 27C183.193 26.8093 182.804 26.5307 182.481 26.164C182.159 25.7973 181.902 25.35 181.711 24.822C181.535 24.294 181.447 23.6853 181.447 22.996V15.648H184.703V22.556C184.703 24.0227 185.341 24.756 186.617 24.756C186.867 24.756 187.109 24.7267 187.343 24.668C187.593 24.5947 187.805 24.492 187.981 24.36C188.172 24.2133 188.326 24.0373 188.443 23.832C188.561 23.6267 188.619 23.3847 188.619 23.106V15.648H191.875V27H188.619V24.932Z" fill="white"/>
<path d="M89.4376 27V11.644H95.3776C96.1256 11.644 96.793 11.7613 97.3796 11.996C97.9663 12.216 98.4576 12.5387 98.8536 12.964C99.2643 13.3893 99.5723 13.9027 99.7776 14.504C99.983 15.1053 100.086 15.78 100.086 16.528C100.086 17.276 99.983 17.9507 99.7776 18.552C99.5723 19.1533 99.2643 19.6667 98.8536 20.092C98.4576 20.5173 97.9663 20.8473 97.3796 21.082C96.793 21.302 96.1256 21.412 95.3776 21.412H92.7596V27H89.4376ZM92.7596 18.75H94.5416C95.319 18.75 95.8543 18.6033 96.1476 18.31C96.4556 18.0167 96.6096 17.5327 96.6096 16.858V16.198C96.6096 15.5233 96.4556 15.0393 96.1476 14.746C95.8543 14.4527 95.319 14.306 94.5416 14.306H92.7596V18.75ZM111.671 27C110.996 27 110.454 26.8313 110.043 26.494C109.632 26.142 109.39 25.6433 109.317 24.998H109.207C109.002 25.746 108.591 26.3107 107.975 26.692C107.374 27.0733 106.633 27.264 105.753 27.264C104.653 27.264 103.766 26.9707 103.091 26.384C102.431 25.7827 102.101 24.9467 102.101 23.876C102.101 22.688 102.534 21.808 103.399 21.236C104.264 20.664 105.533 20.378 107.205 20.378H109.031V19.806C109.031 19.1313 108.87 18.6253 108.547 18.288C108.239 17.936 107.711 17.76 106.963 17.76C106.274 17.76 105.716 17.892 105.291 18.156C104.866 18.42 104.499 18.7647 104.191 19.19L102.409 17.606C102.79 16.9607 103.384 16.4327 104.191 16.022C105.012 15.5967 106.061 15.384 107.337 15.384C108.892 15.384 110.102 15.7433 110.967 16.462C111.847 17.166 112.287 18.2367 112.287 19.674V24.646H113.541V27H111.671ZM106.985 25.13C107.557 25.13 108.041 24.9907 108.437 24.712C108.833 24.4333 109.031 24.03 109.031 23.502V22.138H107.293C105.958 22.138 105.291 22.5853 105.291 23.48V23.92C105.291 24.316 105.445 24.6167 105.753 24.822C106.061 25.0273 106.472 25.13 106.985 25.13ZM115.776 24.47H118.394V18.178H115.776V15.648H121.65V18.86H121.804C121.907 18.4493 122.046 18.0533 122.222 17.672C122.413 17.276 122.648 16.9313 122.926 16.638C123.22 16.33 123.572 16.088 123.982 15.912C124.393 15.736 124.877 15.648 125.434 15.648H126.512V18.64H124.092C123.286 18.64 122.677 18.882 122.266 19.366C121.856 19.8353 121.65 20.4147 121.65 21.104V24.47H125.39V27H115.776V24.47ZM134.82 27C133.647 27 132.774 26.692 132.202 26.076C131.63 25.46 131.344 24.6753 131.344 23.722V18.178H128.264V15.648H130.266C130.75 15.648 131.095 15.5527 131.3 15.362C131.505 15.1713 131.608 14.8193 131.608 14.306V11.644H134.6V15.648H139.022V18.178H134.6V24.47H139.022V27H134.82ZM146.999 27.264C145.738 27.264 144.638 27.0733 143.699 26.692C142.775 26.3107 142.079 25.79 141.609 25.13L143.435 23.436C143.875 23.92 144.389 24.3013 144.975 24.58C145.577 24.844 146.259 24.976 147.021 24.976C147.667 24.976 148.173 24.8807 148.539 24.69C148.906 24.4847 149.089 24.1767 149.089 23.766C149.089 23.4433 148.965 23.2233 148.715 23.106C148.466 22.974 148.121 22.8713 147.681 22.798L145.855 22.512C145.342 22.4387 144.865 22.3287 144.425 22.182C143.985 22.0207 143.604 21.808 143.281 21.544C142.959 21.28 142.702 20.9573 142.511 20.576C142.321 20.1947 142.225 19.7327 142.225 19.19C142.225 18.002 142.68 17.0707 143.589 16.396C144.499 15.7213 145.775 15.384 147.417 15.384C148.532 15.384 149.478 15.538 150.255 15.846C151.047 16.1393 151.678 16.5647 152.147 17.122L150.519 18.97C150.182 18.6033 149.749 18.2953 149.221 18.046C148.693 17.7967 148.055 17.672 147.307 17.672C146.046 17.672 145.415 18.0533 145.415 18.816C145.415 19.1533 145.54 19.388 145.789 19.52C146.039 19.6373 146.383 19.7327 146.823 19.806L148.627 20.092C149.141 20.1653 149.617 20.2827 150.057 20.444C150.497 20.5907 150.879 20.796 151.201 21.06C151.539 21.324 151.803 21.6467 151.993 22.028C152.184 22.4093 152.279 22.8713 152.279 23.414C152.279 24.602 151.817 25.5407 150.893 26.23C149.984 26.9193 148.686 27.264 146.999 27.264Z" fill="#FF0000"/>
<path d="M36.9176 31.0909H37.5384V36.8833H37.5923L41.6845 31.0909H42.2985V38H41.6676V32.2143H41.6136L37.5282 38H36.9176V31.0909ZM47.509 35.1291V35.6958H44.4626V35.1291H47.509ZM44.6111 32.8182V38H44.0106V32.8182H44.6111ZM47.9509 32.8182V38H47.3504V32.8182H47.9509ZM48.8238 33.3849V32.8182H52.8721V33.3849H51.1583V38H50.5578V33.3849H48.8238ZM55.9674 38.108C55.4838 38.108 55.0655 37.9955 54.7124 37.7706C54.3593 37.5434 54.086 37.2297 53.8926 36.8294C53.7015 36.4268 53.6059 35.9635 53.6059 35.4395C53.6059 34.9177 53.7015 34.4544 53.8926 34.0495C54.086 33.6425 54.3526 33.3242 54.6922 33.0948C55.034 32.8632 55.4287 32.7473 55.8763 32.7473C56.1574 32.7473 56.4284 32.7991 56.6893 32.9025C56.9502 33.0037 57.1841 33.16 57.391 33.3714C57.6002 33.5806 57.7655 33.8449 57.8869 34.1642C58.0084 34.4814 58.0691 34.8569 58.0691 35.291V35.5879H54.0208V35.0582H57.4551C57.4551 34.7254 57.3877 34.4263 57.2527 34.1609C57.12 33.8932 56.9345 33.6818 56.6961 33.5266C56.4599 33.3714 56.1867 33.2939 55.8763 33.2939C55.5479 33.2939 55.2589 33.3816 55.0093 33.557C54.7596 33.7324 54.564 33.9641 54.4223 34.252C54.2828 34.5398 54.212 34.8547 54.2097 35.1966V35.5137C54.2097 35.9252 54.2806 36.2851 54.4223 36.5932C54.5662 36.8991 54.7698 37.1364 55.0329 37.305C55.296 37.4737 55.6075 37.5581 55.9674 37.5581C56.2125 37.5581 56.4273 37.5198 56.6117 37.4434C56.7984 37.3669 56.9547 37.2646 57.0807 37.1364C57.2089 37.0059 57.3056 36.8631 57.3708 36.7079L57.9409 36.8935C57.8622 37.1116 57.7329 37.3129 57.553 37.4973C57.3753 37.6818 57.1526 37.8302 56.885 37.9426C56.6196 38.0529 56.3137 38.108 55.9674 38.108ZM59.3924 39.9432V32.8182H59.976V33.8066H60.0469C60.1188 33.6515 60.2178 33.4929 60.3438 33.331C60.4697 33.1668 60.6361 33.0285 60.843 32.916C61.0522 32.8036 61.3153 32.7473 61.6325 32.7473C62.0598 32.7473 62.4331 32.8598 62.7525 33.0847C63.0741 33.3074 63.3237 33.62 63.5014 34.0225C63.6813 34.4229 63.7713 34.8896 63.7713 35.4226C63.7713 35.9579 63.6813 36.4268 63.5014 36.8294C63.3237 37.2319 63.0741 37.5457 62.7525 37.7706C62.4331 37.9955 62.062 38.108 61.6392 38.108C61.3266 38.108 61.0646 38.0517 60.8532 37.9393C60.644 37.8268 60.4742 37.6885 60.3438 37.5243C60.2156 37.3579 60.1166 37.196 60.0469 37.0385H59.9929V39.9432H59.3924ZM59.9862 35.4125C59.9862 35.8308 60.048 36.2019 60.1717 36.5257C60.2976 36.8474 60.4776 37.1004 60.7115 37.2848C60.9476 37.467 61.2333 37.5581 61.5684 37.5581C61.9125 37.5581 62.2026 37.4636 62.4387 37.2747C62.6771 37.0835 62.8582 36.826 62.9819 36.5021C63.1078 36.1783 63.1708 35.815 63.1708 35.4125C63.1708 35.0144 63.109 34.6557 62.9853 34.3363C62.8638 34.0169 62.6839 33.7639 62.4455 33.5772C62.2071 33.3883 61.9147 33.2939 61.5684 33.2939C61.231 33.2939 60.9442 33.3849 60.7081 33.5671C60.4719 33.747 60.292 33.9967 60.1683 34.3161C60.0469 34.6332 59.9862 34.9986 59.9862 35.4125ZM68.5871 35.1291V35.6958H65.5407V35.1291H68.5871ZM65.6892 32.8182V38H65.0887V32.8182H65.6892ZM69.029 32.8182V38H68.4285V32.8182H69.029ZM72.7223 38.108C72.2387 38.108 71.8204 37.9955 71.4673 37.7706C71.1142 37.5434 70.8409 37.2297 70.6475 36.8294C70.4563 36.4268 70.3608 35.9635 70.3608 35.4395C70.3608 34.9177 70.4563 34.4544 70.6475 34.0495C70.8409 33.6425 71.1074 33.3242 71.447 33.0948C71.7889 32.8632 72.1836 32.7473 72.6312 32.7473C72.9123 32.7473 73.1833 32.7991 73.4442 32.9025C73.7051 33.0037 73.939 33.16 74.1459 33.3714C74.3551 33.5806 74.5204 33.8449 74.6418 34.1642C74.7633 34.4814 74.824 34.8569 74.824 35.291V35.5879H70.7757V35.0582H74.21C74.21 34.7254 74.1425 34.4263 74.0076 34.1609C73.8749 33.8932 73.6893 33.6818 73.451 33.5266C73.2148 33.3714 72.9415 33.2939 72.6312 33.2939C72.3028 33.2939 72.0138 33.3816 71.7642 33.557C71.5145 33.7324 71.3188 33.9641 71.1772 34.252C71.0377 34.5398 70.9669 34.8547 70.9646 35.1966V35.5137C70.9646 35.9252 71.0355 36.2851 71.1772 36.5932C71.3211 36.8991 71.5246 37.1364 71.7878 37.305C72.0509 37.4737 72.3624 37.5581 72.7223 37.5581C72.9674 37.5581 73.1822 37.5198 73.3666 37.4434C73.5533 37.3669 73.7096 37.2646 73.8355 37.1364C73.9637 37.0059 74.0604 36.8631 74.1257 36.7079L74.6958 36.8935C74.6171 37.1116 74.4878 37.3129 74.3078 37.4973C74.1302 37.6818 73.9075 37.8302 73.6399 37.9426C73.3745 38.0529 73.0686 38.108 72.7223 38.108ZM75.6446 33.3849V32.8182H79.6929V33.3849H77.9791V38H77.3786V33.3849H75.6446ZM83.4899 34.7546V35.3214H80.6156V34.7546H83.4899ZM87.7069 37.16L89.6534 32.8182H90.237L87.9464 38H87.4673L85.2037 32.8182H85.7772L87.7069 37.16ZM85.5984 32.8182V38H84.9979V32.8182H85.5984ZM89.8153 38V32.8182H90.4158V38H89.8153ZM93.4588 38.1181C93.1462 38.1181 92.8606 38.0574 92.6019 37.9359C92.3433 37.8122 92.1375 37.6345 91.9846 37.4029C91.8316 37.169 91.7551 36.8856 91.7551 36.5527C91.7551 36.2963 91.8035 36.0804 91.9002 35.905C91.9969 35.7296 92.1341 35.5856 92.3118 35.4732C92.4895 35.3607 92.6998 35.2719 92.9426 35.2067C93.1855 35.1415 93.4532 35.0908 93.7456 35.0549C94.0357 35.0189 94.2808 34.9874 94.481 34.9604C94.6834 34.9334 94.8375 34.8907 94.9432 34.8322C95.0489 34.7737 95.1017 34.6793 95.1017 34.5488V34.4274C95.1017 34.0743 94.996 33.7965 94.7846 33.5941C94.5755 33.3894 94.2741 33.2871 93.8805 33.2871C93.5072 33.2871 93.2024 33.3692 92.9663 33.5334C92.7324 33.6976 92.5682 33.891 92.4737 34.1136L91.9036 33.9078C92.0205 33.6245 92.1825 33.3984 92.3894 33.2298C92.5963 33.0588 92.8279 32.9363 93.0843 32.862C93.3407 32.7856 93.6005 32.7473 93.8636 32.7473C94.0616 32.7473 94.2673 32.7732 94.481 32.8249C94.6969 32.8767 94.8971 32.9666 95.0815 33.0948C95.2659 33.2208 95.4155 33.3973 95.5302 33.6245C95.6449 33.8494 95.7022 34.135 95.7022 34.4814V38H95.1017V37.1802H95.0646C94.9927 37.3332 94.8858 37.4816 94.7441 37.6255C94.6025 37.7695 94.4248 37.8875 94.2111 37.9798C93.9975 38.072 93.7467 38.1181 93.4588 38.1181ZM93.5398 37.5682C93.8591 37.5682 94.1358 37.4973 94.3697 37.3556C94.6036 37.214 94.7835 37.0262 94.9094 36.7923C95.0376 36.5561 95.1017 36.2963 95.1017 36.013V35.264C95.0568 35.3068 94.9814 35.345 94.8757 35.3787C94.7723 35.4125 94.6519 35.4428 94.5147 35.4698C94.3798 35.4946 94.2449 35.5159 94.1099 35.5339C93.975 35.5519 93.8535 35.5676 93.7456 35.5811C93.4532 35.6171 93.2035 35.6734 92.9966 35.7498C92.7897 35.8263 92.6312 35.932 92.521 36.0669C92.4107 36.1996 92.3556 36.3706 92.3556 36.5797C92.3556 36.8946 92.4681 37.1386 92.693 37.3118C92.9179 37.4827 93.2002 37.5682 93.5398 37.5682ZM100.38 32.8182V33.3849H97.9001V38H97.2996V32.8182H100.38ZM102.82 38.1181C102.507 38.1181 102.221 38.0574 101.963 37.9359C101.704 37.8122 101.498 37.6345 101.345 37.4029C101.192 37.169 101.116 36.8856 101.116 36.5527C101.116 36.2963 101.164 36.0804 101.261 35.905C101.358 35.7296 101.495 35.5856 101.673 35.4732C101.85 35.3607 102.061 35.2719 102.303 35.2067C102.546 35.1415 102.814 35.0908 103.106 35.0549C103.397 35.0189 103.642 34.9874 103.842 34.9604C104.044 34.9334 104.198 34.8907 104.304 34.8322C104.41 34.7737 104.463 34.6793 104.463 34.5488V34.4274C104.463 34.0743 104.357 33.7965 104.145 33.5941C103.936 33.3894 103.635 33.2871 103.241 33.2871C102.868 33.2871 102.563 33.3692 102.327 33.5334C102.093 33.6976 101.929 33.891 101.835 34.1136L101.264 33.9078C101.381 33.6245 101.543 33.3984 101.75 33.2298C101.957 33.0588 102.189 32.9363 102.445 32.862C102.702 32.7856 102.961 32.7473 103.224 32.7473C103.422 32.7473 103.628 32.7732 103.842 32.8249C104.058 32.8767 104.258 32.9666 104.442 33.0948C104.627 33.2208 104.776 33.3973 104.891 33.6245C105.006 33.8494 105.063 34.135 105.063 34.4814V38H104.463V37.1802H104.425C104.354 37.3332 104.247 37.4816 104.105 37.6255C103.963 37.7695 103.786 37.8875 103.572 37.9798C103.358 38.072 103.108 38.1181 102.82 38.1181ZM102.901 37.5682C103.22 37.5682 103.497 37.4973 103.731 37.3556C103.964 37.214 104.144 37.0262 104.27 36.7923C104.398 36.5561 104.463 36.2963 104.463 36.013V35.264C104.418 35.3068 104.342 35.345 104.237 35.3787C104.133 35.4125 104.013 35.4428 103.876 35.4698C103.741 35.4946 103.606 35.5159 103.471 35.5339C103.336 35.5519 103.214 35.5676 103.106 35.5811C102.814 35.6171 102.564 35.6734 102.357 35.7498C102.151 35.8263 101.992 35.932 101.882 36.0669C101.772 36.1996 101.716 36.3706 101.716 36.5797C101.716 36.8946 101.829 37.1386 102.054 37.3118C102.279 37.4827 102.561 37.5682 102.901 37.5682ZM106.326 36.6776H106.964C106.982 36.9542 107.101 37.1701 107.322 37.3253C107.542 37.4805 107.832 37.5581 108.192 37.5581C108.565 37.5581 108.874 37.4748 109.116 37.3084C109.359 37.1397 109.481 36.8946 109.481 36.573C109.481 36.3773 109.435 36.2075 109.342 36.0636C109.253 35.9196 109.129 35.8072 108.971 35.7262C108.816 35.643 108.64 35.6003 108.442 35.598H107.538V35.0481H108.432C108.74 35.0301 108.974 34.9469 109.133 34.7985C109.293 34.6478 109.373 34.451 109.373 34.2081C109.373 33.9315 109.275 33.7099 109.079 33.5435C108.884 33.3748 108.618 33.2905 108.283 33.2905C107.944 33.2905 107.661 33.3737 107.436 33.5401C107.211 33.7066 107.092 33.9202 107.079 34.1811H106.448C106.459 33.9 106.544 33.6526 106.701 33.4389C106.858 33.223 107.071 33.0543 107.339 32.9329C107.608 32.8114 107.914 32.7507 108.256 32.7507C108.607 32.7507 108.912 32.8137 109.17 32.9396C109.429 33.0656 109.629 33.2376 109.771 33.4558C109.913 33.6717 109.983 33.9168 109.983 34.1912C109.983 34.4769 109.905 34.7119 109.747 34.8963C109.592 35.0785 109.393 35.2067 109.15 35.2809V35.3315C109.335 35.3517 109.497 35.4192 109.636 35.5339C109.778 35.6486 109.889 35.7959 109.97 35.9759C110.051 36.1558 110.091 36.3548 110.091 36.573C110.091 36.8788 110.012 37.1476 109.852 37.3793C109.692 37.6087 109.47 37.7875 109.184 37.9157C108.901 38.0439 108.573 38.108 108.202 38.108C107.845 38.108 107.526 38.0484 107.247 37.9292C106.969 37.8077 106.747 37.6402 106.583 37.4265C106.421 37.2106 106.335 36.9609 106.326 36.6776ZM111.927 37.1465L114.663 32.8182H115.382V38H114.782V33.6717L112.056 38H111.327V32.8182H111.927V37.1465ZM120.466 35.1291V35.6958H117.42V35.1291H120.466ZM117.568 32.8182V38H116.968V32.8182H117.568ZM120.908 32.8182V38H120.307V32.8182H120.908ZM126.625 38.1181C126.313 38.1181 126.027 38.0574 125.768 37.9359C125.51 37.8122 125.304 37.6345 125.151 37.4029C124.998 37.169 124.922 36.8856 124.922 36.5527C124.922 36.2963 124.97 36.0804 125.067 35.905C125.163 35.7296 125.301 35.5856 125.478 35.4732C125.656 35.3607 125.866 35.2719 126.109 35.2067C126.352 35.1415 126.62 35.0908 126.912 35.0549C127.202 35.0189 127.447 34.9874 127.648 34.9604C127.85 34.9334 128.004 34.8907 128.11 34.8322C128.215 34.7737 128.268 34.6793 128.268 34.5488V34.4274C128.268 34.0743 128.163 33.7965 127.951 33.5941C127.742 33.3894 127.441 33.2871 127.047 33.2871C126.674 33.2871 126.369 33.3692 126.133 33.5334C125.899 33.6976 125.735 33.891 125.64 34.1136L125.07 33.9078C125.187 33.6245 125.349 33.3984 125.556 33.2298C125.763 33.0588 125.994 32.9363 126.251 32.862C126.507 32.7856 126.767 32.7473 127.03 32.7473C127.228 32.7473 127.434 32.7732 127.648 32.8249C127.863 32.8767 128.064 32.9666 128.248 33.0948C128.432 33.2208 128.582 33.3973 128.697 33.6245C128.811 33.8494 128.869 34.135 128.869 34.4814V38H128.268V37.1802H128.231C128.159 37.3332 128.052 37.4816 127.911 37.6255C127.769 37.7695 127.591 37.8875 127.378 37.9798C127.164 38.072 126.913 38.1181 126.625 38.1181ZM126.706 37.5682C127.026 37.5682 127.302 37.4973 127.536 37.3556C127.77 37.214 127.95 37.0262 128.076 36.7923C128.204 36.5561 128.268 36.2963 128.268 36.013V35.264C128.223 35.3068 128.148 35.345 128.042 35.3787C127.939 35.4125 127.818 35.4428 127.681 35.4698C127.546 35.4946 127.411 35.5159 127.276 35.5339C127.141 35.5519 127.02 35.5676 126.912 35.5811C126.62 35.6171 126.37 35.6734 126.163 35.7498C125.956 35.8263 125.798 35.932 125.687 36.0669C125.577 36.1996 125.522 36.3706 125.522 36.5797C125.522 36.8946 125.635 37.1386 125.86 37.3118C126.084 37.4827 126.367 37.5682 126.706 37.5682ZM130.466 38V32.8182H132.507C133.058 32.8182 133.492 32.9374 133.809 33.1758C134.129 33.4142 134.288 33.7358 134.288 34.1406C134.288 34.4487 134.2 34.695 134.022 34.8794C133.844 35.0639 133.606 35.1943 133.307 35.2708C133.507 35.3045 133.692 35.3776 133.863 35.4901C134.037 35.6025 134.177 35.7509 134.285 35.9354C134.393 36.1198 134.447 36.3402 134.447 36.5966C134.447 36.8665 134.379 37.1071 134.245 37.3185C134.11 37.5299 133.92 37.6964 133.674 37.8178C133.429 37.9393 133.139 38 132.804 38H130.466ZM131.04 37.4434H132.804C133.121 37.4434 133.372 37.3624 133.556 37.2005C133.741 37.0363 133.833 36.8181 133.833 36.546C133.833 36.2559 133.745 36.0242 133.57 35.851C133.397 35.6756 133.164 35.5879 132.871 35.5879H131.04V37.4434ZM131.04 35.0549H132.544C132.778 35.0549 132.981 35.0189 133.152 34.9469C133.322 34.8749 133.454 34.7737 133.546 34.6433C133.641 34.5106 133.687 34.3554 133.685 34.1777C133.685 33.9236 133.581 33.7268 133.374 33.5874C133.167 33.4457 132.878 33.3748 132.507 33.3748H131.04V35.0549ZM135.446 33.3849V32.8182H139.495V33.3849H137.781V38H137.18V33.3849H135.446ZM142.509 38.108C142.061 38.108 141.666 37.9944 141.321 37.7672C140.98 37.5401 140.712 37.2263 140.519 36.826C140.325 36.4234 140.228 35.959 140.228 35.4327C140.228 34.9019 140.325 34.4353 140.519 34.0327C140.712 33.6278 140.98 33.313 141.321 33.0881C141.666 32.8609 142.061 32.7473 142.509 32.7473C142.957 32.7473 143.351 32.8609 143.693 33.0881C144.035 33.3152 144.303 33.6301 144.496 34.0327C144.692 34.4353 144.79 34.9019 144.79 35.4327C144.79 35.959 144.693 36.4234 144.499 36.826C144.306 37.2263 144.037 37.5401 143.693 37.7672C143.351 37.9944 142.957 38.108 142.509 38.108ZM142.509 37.5581C142.869 37.5581 143.174 37.4614 143.423 37.2679C143.673 37.0745 143.862 36.817 143.99 36.4954C144.12 36.1738 144.186 35.8195 144.186 35.4327C144.186 35.0459 144.12 34.6905 143.99 34.3667C143.862 34.0428 143.673 33.783 143.423 33.5874C143.174 33.3917 142.869 33.2939 142.509 33.2939C142.151 33.2939 141.847 33.3917 141.595 33.5874C141.345 33.783 141.155 34.0428 141.025 34.3667C140.896 34.6905 140.832 35.0459 140.832 35.4327C140.832 35.8195 140.896 36.1738 141.025 36.4954C141.155 36.817 141.345 37.0745 141.595 37.2679C141.844 37.4614 142.149 37.5581 142.509 37.5581ZM145.774 36.6776H146.411C146.429 36.9542 146.549 37.1701 146.769 37.3253C146.989 37.4805 147.279 37.5581 147.639 37.5581C148.013 37.5581 148.321 37.4748 148.564 37.3084C148.807 37.1397 148.928 36.8946 148.928 36.573C148.928 36.3773 148.882 36.2075 148.79 36.0636C148.7 35.9196 148.576 35.8072 148.419 35.7262C148.263 35.643 148.087 35.6003 147.889 35.598H146.985V35.0481H147.879C148.187 35.0301 148.421 34.9469 148.581 34.7985C148.74 34.6478 148.82 34.451 148.82 34.2081C148.82 33.9315 148.722 33.7099 148.527 33.5435C148.331 33.3748 148.066 33.2905 147.73 33.2905C147.391 33.2905 147.109 33.3737 146.884 33.5401C146.659 33.7066 146.54 33.9202 146.526 34.1811H145.895C145.906 33.9 145.991 33.6526 146.148 33.4389C146.306 33.223 146.518 33.0543 146.786 32.9329C147.056 32.8114 147.362 32.7507 147.703 32.7507C148.054 32.7507 148.359 32.8137 148.618 32.9396C148.876 33.0656 149.076 33.2376 149.218 33.4558C149.36 33.6717 149.431 33.9168 149.431 34.1912C149.431 34.4769 149.352 34.7119 149.195 34.8963C149.039 35.0785 148.84 35.2067 148.597 35.2809V35.3315C148.782 35.3517 148.944 35.4192 149.083 35.5339C149.225 35.6486 149.336 35.7959 149.417 35.9759C149.498 36.1558 149.539 36.3548 149.539 36.573C149.539 36.8788 149.459 37.1476 149.299 37.3793C149.139 37.6087 148.917 37.7875 148.631 37.9157C148.348 38.0439 148.021 38.108 147.649 38.108C147.292 38.108 146.974 38.0484 146.695 37.9292C146.416 37.8077 146.194 37.6402 146.03 37.4265C145.868 37.2106 145.783 36.9609 145.774 36.6776ZM152.222 38.1181C151.909 38.1181 151.623 38.0574 151.365 37.9359C151.106 37.8122 150.9 37.6345 150.747 37.4029C150.594 37.169 150.518 36.8856 150.518 36.5527C150.518 36.2963 150.566 36.0804 150.663 35.905C150.76 35.7296 150.897 35.5856 151.074 35.4732C151.252 35.3607 151.462 35.2719 151.705 35.2067C151.948 35.1415 152.216 35.0908 152.508 35.0549C152.798 35.0189 153.044 34.9874 153.244 34.9604C153.446 34.9334 153.6 34.8907 153.706 34.8322C153.812 34.7737 153.864 34.6793 153.864 34.5488V34.4274C153.864 34.0743 153.759 33.7965 153.547 33.5941C153.338 33.3894 153.037 33.2871 152.643 33.2871C152.27 33.2871 151.965 33.3692 151.729 33.5334C151.495 33.6976 151.331 33.891 151.236 34.1136L150.666 33.9078C150.783 33.6245 150.945 33.3984 151.152 33.2298C151.359 33.0588 151.591 32.9363 151.847 32.862C152.103 32.7856 152.363 32.7473 152.626 32.7473C152.824 32.7473 153.03 32.7732 153.244 32.8249C153.46 32.8767 153.66 32.9666 153.844 33.0948C154.029 33.2208 154.178 33.3973 154.293 33.6245C154.408 33.8494 154.465 34.135 154.465 34.4814V38H153.864V37.1802H153.827C153.755 37.3332 153.649 37.4816 153.507 37.6255C153.365 37.7695 153.187 37.8875 152.974 37.9798C152.76 38.072 152.509 38.1181 152.222 38.1181ZM152.302 37.5682C152.622 37.5682 152.898 37.4973 153.132 37.3556C153.366 37.214 153.546 37.0262 153.672 36.7923C153.8 36.5561 153.864 36.2963 153.864 36.013V35.264C153.819 35.3068 153.744 35.345 153.638 35.3787C153.535 35.4125 153.415 35.4428 153.277 35.4698C153.142 35.4946 153.008 35.5159 152.873 35.5339C152.738 35.5519 152.616 35.5676 152.508 35.5811C152.216 35.6171 151.966 35.6734 151.759 35.7498C151.552 35.8263 151.394 35.932 151.284 36.0669C151.173 36.1996 151.118 36.3706 151.118 36.5797C151.118 36.8946 151.231 37.1386 151.456 37.3118C151.681 37.4827 151.963 37.5682 152.302 37.5682ZM156.069 38V32.8182H159.993V38H159.389V33.3849H156.673V38H156.069ZM165.405 32.8182V38H164.801V32.8182H165.405ZM165.182 35.3787V35.9522C164.977 36.0265 164.783 36.0894 164.598 36.1412C164.414 36.1906 164.228 36.2289 164.042 36.2559C163.857 36.2828 163.66 36.2963 163.451 36.2963C162.869 36.2941 162.411 36.1445 162.078 35.8477C161.748 35.5508 161.582 35.0987 161.582 34.4915V32.8013H162.183V34.4915C162.183 34.7794 162.235 35.0144 162.338 35.1966C162.441 35.3787 162.588 35.5137 162.777 35.6014C162.966 35.6868 163.188 35.7296 163.445 35.7296C163.759 35.7296 164.056 35.6981 164.335 35.6351C164.614 35.5721 164.896 35.4867 165.182 35.3787ZM168.448 38.1181C168.135 38.1181 167.849 38.0574 167.591 37.9359C167.332 37.8122 167.126 37.6345 166.973 37.4029C166.82 37.169 166.744 36.8856 166.744 36.5527C166.744 36.2963 166.792 36.0804 166.889 35.905C166.986 35.7296 167.123 35.5856 167.301 35.4732C167.478 35.3607 167.689 35.2719 167.931 35.2067C168.174 35.1415 168.442 35.0908 168.734 35.0549C169.024 35.0189 169.27 34.9874 169.47 34.9604C169.672 34.9334 169.826 34.8907 169.932 34.8322C170.038 34.7737 170.091 34.6793 170.091 34.5488V34.4274C170.091 34.0743 169.985 33.7965 169.773 33.5941C169.564 33.3894 169.263 33.2871 168.869 33.2871C168.496 33.2871 168.191 33.3692 167.955 33.5334C167.721 33.6976 167.557 33.891 167.462 34.1136L166.892 33.9078C167.009 33.6245 167.171 33.3984 167.378 33.2298C167.585 33.0588 167.817 32.9363 168.073 32.862C168.33 32.7856 168.589 32.7473 168.852 32.7473C169.05 32.7473 169.256 32.7732 169.47 32.8249C169.686 32.8767 169.886 32.9666 170.07 33.0948C170.255 33.2208 170.404 33.3973 170.519 33.6245C170.634 33.8494 170.691 34.135 170.691 34.4814V38H170.091V37.1802H170.053C169.981 37.3332 169.875 37.4816 169.733 37.6255C169.591 37.7695 169.414 37.8875 169.2 37.9798C168.986 38.072 168.735 38.1181 168.448 38.1181ZM168.529 37.5682C168.848 37.5682 169.125 37.4973 169.358 37.3556C169.592 37.214 169.772 37.0262 169.898 36.7923C170.026 36.5561 170.091 36.2963 170.091 36.013V35.264C170.046 35.3068 169.97 35.345 169.864 35.3787C169.761 35.4125 169.641 35.4428 169.504 35.4698C169.369 35.4946 169.234 35.5159 169.099 35.5339C168.964 35.5519 168.842 35.5676 168.734 35.5811C168.442 35.6171 168.192 35.6734 167.985 35.7498C167.778 35.8263 167.62 35.932 167.51 36.0669C167.4 36.1996 167.344 36.3706 167.344 36.5797C167.344 36.8946 167.457 37.1386 167.682 37.3118C167.907 37.4827 168.189 37.5682 168.529 37.5682ZM174.313 38.108C173.849 38.108 173.446 37.9921 173.101 37.7605C172.76 37.5288 172.494 37.2117 172.305 36.8091C172.116 36.4065 172.022 35.9477 172.022 35.4327C172.022 34.9132 172.117 34.451 172.309 34.0462C172.502 33.6413 172.77 33.3242 173.112 33.0948C173.453 32.8632 173.85 32.7473 174.302 32.7473C174.649 32.7473 174.963 32.8148 175.244 32.9498C175.525 33.0824 175.756 33.2702 175.939 33.5131C176.123 33.7538 176.239 34.0349 176.286 34.3565H175.679C175.616 34.0642 175.464 33.8145 175.223 33.6076C174.985 33.3984 174.681 33.2939 174.313 33.2939C173.982 33.2939 173.69 33.3838 173.435 33.5637C173.181 33.7414 172.982 33.9899 172.838 34.3093C172.697 34.6264 172.626 34.9941 172.626 35.4125C172.626 35.833 172.695 36.2053 172.835 36.5291C172.974 36.8507 173.17 37.1026 173.422 37.2848C173.676 37.467 173.973 37.5581 174.313 37.5581C174.542 37.5581 174.751 37.5153 174.94 37.4299C175.131 37.3422 175.291 37.2185 175.419 37.0588C175.55 36.8991 175.637 36.709 175.682 36.4886H176.289C176.244 36.8013 176.133 37.0801 175.955 37.3253C175.78 37.5682 175.552 37.7594 175.271 37.8988C174.992 38.0382 174.672 38.108 174.313 38.108ZM177.148 33.3849V32.8182H181.196V33.3849H179.483V38H178.882V33.3849H177.148ZM184.292 38.108C183.808 38.108 183.39 37.9955 183.037 37.7706C182.684 37.5434 182.41 37.2297 182.217 36.8294C182.026 36.4268 181.93 35.9635 181.93 35.4395C181.93 34.9177 182.026 34.4544 182.217 34.0495C182.41 33.6425 182.677 33.3242 183.016 33.0948C183.358 32.8632 183.753 32.7473 184.201 32.7473C184.482 32.7473 184.753 32.7991 185.014 32.9025C185.274 33.0037 185.508 33.16 185.715 33.3714C185.924 33.5806 186.09 33.8449 186.211 34.1642C186.333 34.4814 186.393 34.8569 186.393 35.291V35.5879H182.345V35.0582H185.779C185.779 34.7254 185.712 34.4263 185.577 34.1609C185.444 33.8932 185.259 33.6818 185.02 33.5266C184.784 33.3714 184.511 33.2939 184.201 33.2939C183.872 33.2939 183.583 33.3816 183.333 33.557C183.084 33.7324 182.888 33.9641 182.746 34.252C182.607 34.5398 182.536 34.8547 182.534 35.1966V35.5137C182.534 35.9252 182.605 36.2851 182.746 36.5932C182.89 36.8991 183.094 37.1364 183.357 37.305C183.62 37.4737 183.932 37.5581 184.292 37.5581C184.537 37.5581 184.752 37.5198 184.936 37.4434C185.123 37.3669 185.279 37.2646 185.405 37.1364C185.533 37.0059 185.63 36.8631 185.695 36.7079L186.265 36.8935C186.186 37.1116 186.057 37.3129 185.877 37.4973C185.699 37.6818 185.477 37.8302 185.209 37.9426C184.944 38.0529 184.638 38.108 184.292 38.108ZM188.317 37.1465L191.053 32.8182H191.772V38H191.171V33.6717L188.445 38H187.717V32.8182H188.317V37.1465ZM190.365 31.0909H190.932C190.932 31.4125 190.825 31.6734 190.611 31.8736C190.4 32.0737 190.111 32.1738 189.744 32.1738C189.382 32.1738 189.095 32.0737 188.884 31.8736C188.672 31.6734 188.567 31.4125 188.567 31.0909H189.134C189.134 31.2663 189.181 31.4148 189.275 31.5362C189.372 31.6554 189.528 31.715 189.744 31.715C189.96 31.715 190.117 31.6554 190.216 31.5362C190.315 31.4148 190.365 31.2663 190.365 31.0909Z" fill="white"/>
<path d="M8.91205 44.9511C8.91205 46.6973 10.7459 48.1177 12.9999 48.1177C15.254 48.1177 17.0878 46.6972 17.0878 44.9511C17.0878 43.205 15.254 41.7845 12.9999 41.7845C10.7459 41.7845 8.91205 43.2049 8.91205 44.9511ZM14.6033 44.9511C14.6033 45.6359 13.884 46.1931 12.9999 46.1931C12.1159 46.1931 11.3966 45.6359 11.3966 44.9511C11.3966 44.2663 12.1159 43.7091 12.9999 43.7091C13.884 43.7091 14.6033 44.2663 14.6033 44.9511Z" fill="#FF0000"/>
<path d="M13.0001 10.0187C10.9507 10.0187 9.28348 11.3102 9.28348 12.8977C9.28348 14.4852 10.9507 15.7768 13.0001 15.7768C15.0494 15.7768 16.7165 14.4852 16.7165 12.8977C16.7165 11.3102 15.0493 10.0187 13.0001 10.0187ZM13.0001 13.8521C12.3207 13.8521 11.768 13.424 11.768 12.8977C11.768 12.3715 12.3207 11.9433 13.0001 11.9433C13.6793 11.9433 14.232 12.3715 14.232 12.8977C14.232 13.424 13.6793 13.8521 13.0001 13.8521Z" fill="#FF0000"/>
<path d="M24.7577 0H1.24227C0.556122 0 0 0.430901 0 0.96231V20.8232C0 21.3547 0.556122 21.7855 1.24227 21.7855H6.51322C7.19936 21.7855 7.75549 21.3547 7.75549 20.8232C7.75549 19.7215 8.61348 18.7725 9.83863 18.3548L9.13979 38.2188C9.10293 39.2111 8.0702 39.9885 6.78859 39.9885C6.10244 39.9885 5.54632 40.4193 5.54632 40.9508V45.226C5.54632 48.4098 8.89009 50.9999 13.0001 50.9999C17.11 50.9999 20.4537 48.4096 20.4537 45.226V40.9508C20.4537 40.4193 19.8976 39.9885 19.2114 39.9885C17.9298 39.9885 16.8971 39.2111 16.8602 38.2188L16.1614 18.3548C17.3865 18.7725 18.2445 19.7215 18.2445 20.8232C18.2445 21.3547 18.8006 21.7855 19.4868 21.7855H24.7577C25.4439 21.7855 26 21.3547 26 20.8232V0.96231C26 0.430901 25.4439 0 24.7577 0ZM23.5155 1.92462V2.94349H2.48454V1.92462H23.5155ZM23.5155 4.86811V6.05047H2.48454V4.86811H23.5155ZM17.9691 41.7906V45.226C17.9691 47.3485 15.74 49.0752 12.9999 49.0752C10.2599 49.0752 8.03086 47.3484 8.03086 45.226V41.7904C10.0622 41.3798 11.5597 39.9815 11.6232 38.2727L12.332 18.1272H13.668L14.3768 38.2727C14.3768 38.2731 14.3768 38.2736 14.3768 38.2742C14.4401 39.9817 15.9378 41.3799 17.9691 41.7906ZM20.599 19.8609C20.0261 17.7733 17.6275 16.2026 14.7644 16.2026H11.2358C8.37248 16.2026 5.97407 17.7732 5.40111 19.8609H2.48468V7.97509H23.5157V19.8609H20.599Z" fill="#FF0000"/>
</svg>
